<?xml version="1.0" encoding="UTF-8" standalone="no"?>
<svg
   xmlns:dc="http://purl.org/dc/elements/1.1/"
   xmlns:cc="http://creativecommons.org/ns#"
   xmlns:rdf="http://www.w3.org/1999/02/22-rdf-syntax-ns#"
   xmlns:svg="http://www.w3.org/2000/svg"
   xmlns="http://www.w3.org/2000/svg"
   xmlns:sodipodi="http://sodipodi.sourceforge.net/DTD/sodipodi-0.dtd"
   xmlns:inkscape="http://www.inkscape.org/namespaces/inkscape"
   width="48"
   height="48"
   viewBox="0 0 48 48"
   version="1.1"
   id="svg4"
   sodipodi:docname="binaryeye.svg"
   inkscape:version="0.92.2 5c3e80d, 2017-08-06"
   inkscape:export-filename="/Users/michael/Michael/Prog/GitHub/frost_fork/frost/other/binaryeye_preview.png"
   inkscape:export-xdpi="400"
   inkscape:export-ydpi="400">
  <metadata
     id="metadata10">
    <rdf:RDF>
      <cc:Work
         rdf:about="">
        <dc:format>image/svg+xml</dc:format>
        <dc:type
           rdf:resource="http://purl.org/dc/dcmitype/StillImage" />
        <dc:title></dc:title>
      </cc:Work>
    </rdf:RDF>
  </metadata>
  <defs
     id="defs8" />
  <sodipodi:namedview
     pagecolor="#ffffff"
     bordercolor="#666666"
     borderopacity="1"
     objecttolerance="10"
     gridtolerance="10"
     guidetolerance="10"
     inkscape:pageopacity="0"
     inkscape:pageshadow="2"
     inkscape:window-width="1920"
     inkscape:window-height="1253"
     id="namedview6"
     showgrid="false"
     inkscape:pagecheckerboard="true"
     inkscape:zoom="18.32736"
     inkscape:cx="24.305085"
     inkscape:cy="22.677966"
     inkscape:window-x="146"
     inkscape:window-y="27"
     inkscape:window-maximized="0"
     inkscape:current-layer="svg4" />
  <path
     d="M 24 2 A 22 22 0 0 0 2 24 A 22 22 0 0 0 24 46 A 22 22 0 0 0 46 24 A 22 22 0 0 0 24 2 z M 24.396484 8.3417969 A 15.559322 15.559322 0 0 1 28.398438 8.9433594 L 28.990234 9.1269531 A 15.559322 15.559322 0 0 1 38.921875 28.640625 A 15.559322 15.559322 0 0 1 19.507812 38.763672 A 15.559322 15.559322 0 0 1 9.1914062 19.453125 A 15.559322 15.559322 0 0 1 24.396484 8.3417969 z "
     id="circle2"
     style="fill:#ffffff" />
  <path
     style="color:#000000;clip-rule:nonzero;display:inline;overflow:visible;visibility:visible;opacity:1;isolation:auto;mix-blend-mode:normal;color-interpolation:sRGB;color-interpolation-filters:linearRGB;solid-color:#000000;solid-opacity:1;fill:#ffffff;fill-opacity:1;fill-rule:evenodd;stroke:none;stroke-width:3.77952766;stroke-linecap:round;stroke-linejoin:round;stroke-miterlimit:4;stroke-dasharray:none;stroke-dashoffset:0;stroke-opacity:1;paint-order:markers stroke fill;color-rendering:auto;image-rendering:auto;shape-rendering:auto;text-rendering:auto;enable-background:accumulate"
     d="M 23.654297 15.662109 A 8.6440678 8.6440678 0 0 0 15.207031 21.835938 A 8.6440678 8.6440678 0 0 0 20.939453 32.564453 A 8.6440678 8.6440678 0 0 0 31.724609 26.939453 A 8.6440678 8.6440678 0 0 0 32.027344 22.955078 A 5.7966104 5.7966104 0 0 1 27.677734 23.333984 A 5.7966104 5.7966104 0 0 1 23.833984 16.140625 A 5.7966104 5.7966104 0 0 1 23.994141 15.685547 A 8.6440678 8.6440678 0 0 0 23.654297 15.662109 z "
     id="path4557" />
</svg>
