<?xml version="1.0" encoding="UTF-8" standalone="no"?>
<svg
   xmlns:dc="http://purl.org/dc/elements/1.1/"
   xmlns:cc="http://creativecommons.org/ns#"
   xmlns:rdf="http://www.w3.org/1999/02/22-rdf-syntax-ns#"
   xmlns:svg="http://www.w3.org/2000/svg"
   xmlns="http://www.w3.org/2000/svg"
   xmlns:sodipodi="http://sodipodi.sourceforge.net/DTD/sodipodi-0.dtd"
   xmlns:inkscape="http://www.inkscape.org/namespaces/inkscape"
   width="48"
   height="48"
   viewBox="0 0 48 48"
   version="1.1"
   id="svg4"
   sodipodi:docname="droid48.svg"
   inkscape:version="0.92.2 5c3e80d, 2017-08-06"
   inkscape:export-filename="/Users/michael/Michael/Prog/GitHub/frost_fork/frost/other/droid48_preview.png"
   inkscape:export-xdpi="400"
   inkscape:export-ydpi="400">
  <metadata
     id="metadata10">
    <rdf:RDF>
      <cc:Work
         rdf:about="">
        <dc:format>image/svg+xml</dc:format>
        <dc:type
           rdf:resource="http://purl.org/dc/dcmitype/StillImage" />
        <dc:title></dc:title>
      </cc:Work>
    </rdf:RDF>
  </metadata>
  <defs
     id="defs8" />
  <sodipodi:namedview
     pagecolor="#ffffff"
     bordercolor="#666666"
     borderopacity="1"
     objecttolerance="10"
     gridtolerance="10"
     guidetolerance="10"
     inkscape:pageopacity="0"
     inkscape:pageshadow="2"
     inkscape:window-width="1608"
     inkscape:window-height="1159"
     id="namedview6"
     showgrid="false"
     inkscape:pagecheckerboard="true"
     inkscape:zoom="13.906433"
     inkscape:cx="16.001969"
     inkscape:cy="24"
     inkscape:window-x="152"
     inkscape:window-y="0"
     inkscape:window-maximized="0"
     inkscape:current-layer="svg4" />
  <path
     style="fill:#ffffff;stroke-width:0.81822461"
     d="M 14.626953 4 C 13.885157 4 13.289062 4.5980471 13.289062 5.3398438 L 13.289062 42.660156 C 13.289062 43.401953 13.885157 44 14.626953 44 L 33.373047 44 C 34.114843 44 34.710938 43.401953 34.710938 42.660156 L 34.710938 5.3398438 C 34.710938 4.5980471 34.114843 4 33.373047 4 L 14.626953 4 z M 16.570312 8.1621094 L 31.429688 8.1621094 C 31.955083 8.1621094 32.376953 8.5859327 32.376953 9.1113281 L 32.376953 16.5625 C 32.376953 17.087895 31.955083 17.509766 31.429688 17.509766 L 16.570312 17.509766 C 16.044917 17.509766 15.623047 17.087895 15.623047 16.5625 L 15.623047 9.1113281 C 15.623047 8.5859327 16.044917 8.1621094 16.570312 8.1621094 z M 15.623047 18.890625 L 32.376953 18.890625 L 32.376953 19.609375 L 15.623047 19.609375 L 15.623047 18.890625 z M 15.623047 20.818359 L 32.376953 20.818359 L 32.376953 41.744141 L 15.623047 41.744141 L 15.623047 20.818359 z "
     id="rect2" />
</svg>
