<?xml version="1.0" encoding="UTF-8" standalone="no"?>
<svg
   xmlns:dc="http://purl.org/dc/elements/1.1/"
   xmlns:cc="http://creativecommons.org/ns#"
   xmlns:rdf="http://www.w3.org/1999/02/22-rdf-syntax-ns#"
   xmlns:svg="http://www.w3.org/2000/svg"
   xmlns="http://www.w3.org/2000/svg"
   xmlns:sodipodi="http://sodipodi.sourceforge.net/DTD/sodipodi-0.dtd"
   xmlns:inkscape="http://www.inkscape.org/namespaces/inkscape"
   width="48"
   height="48"
   viewBox="0 0 48 48"
   version="1.1"
   id="svg4"
   sodipodi:docname="pn.svg"
   inkscape:version="0.92.2 5c3e80d, 2017-08-06"
   inkscape:export-filename="/Users/michael/Michael/Prog/GitHub/frost_fork/frost/other/pn_preview.png"
   inkscape:export-xdpi="400"
   inkscape:export-ydpi="400">
  <metadata
     id="metadata10">
    <rdf:RDF>
      <cc:Work
         rdf:about="">
        <dc:format>image/svg+xml</dc:format>
        <dc:type
           rdf:resource="http://purl.org/dc/dcmitype/StillImage" />
        <dc:title></dc:title>
      </cc:Work>
    </rdf:RDF>
  </metadata>
  <defs
     id="defs8" />
  <sodipodi:namedview
     pagecolor="#ffffff"
     bordercolor="#666666"
     borderopacity="1"
     objecttolerance="10"
     gridtolerance="10"
     guidetolerance="10"
     inkscape:pageopacity="0"
     inkscape:pageshadow="2"
     inkscape:window-width="2077"
     inkscape:window-height="1107"
     id="namedview6"
     showgrid="false"
     inkscape:pagecheckerboard="true"
     inkscape:zoom="10.51445"
     inkscape:cx="-2.0367076"
     inkscape:cy="17.431477"
     inkscape:window-x="119"
     inkscape:window-y="219"
     inkscape:window-maximized="0"
     inkscape:current-layer="svg4" />
  <path
     d="m 8.4436508,8.4436508 a 22,22 0 0 0 0,31.1126982 22,22 0 0 0 31.1126982,0 22,22 0 0 0 0,-31.1126982 22,22 0 0 0 -31.1126982,0 z m 7.3238032,7.7436482 c 2.089539,-2.093028 3.868513,-3.806223 3.952616,-3.806224 0.269656,1e-6 0.741633,1.270917 0.741633,1.995644 l 1e-6,0.701582 -0.368745,0.493041 -0.365983,0.493042 2.821522,2.840856 2.821521,2.838095 1.439073,-1.251248 1.440454,-1.252628 h 1.010942 1.010941 l 0.494423,0.367364 0.49166,0.367364 -2.408582,2.427917 -2.409964,2.429299 4.250927,4.256452 4.250927,4.256451 v 0.950175 l 0.0014,0.948793 -0.954318,0.0014 h -0.952936 l -4.252309,-4.252308 -4.252308,-4.252308 -2.429298,2.409963 -2.429299,2.409964 -0.365983,-0.493042 -0.368746,-0.493041 0.0014,-1.073089 v -1.074472 l 1.25401,-1.372781 1.25539,-1.374162 -2.842237,-2.825666 -2.843619,-2.824283 -0.493041,0.365983 -0.493042,0.368745 -0.903218,-0.0083 -0.904599,-0.0069 -0.499947,-0.378412 -0.499947,-0.378413 z"
     id="circle2"
     inkscape:connector-curvature="0"
     style="fill:#ffffff" />
</svg>
