<?xml version="1.0" encoding="UTF-8" standalone="no"?>
<svg
   xmlns:dc="http://purl.org/dc/elements/1.1/"
   xmlns:cc="http://creativecommons.org/ns#"
   xmlns:rdf="http://www.w3.org/1999/02/22-rdf-syntax-ns#"
   xmlns:svg="http://www.w3.org/2000/svg"
   xmlns="http://www.w3.org/2000/svg"
   xmlns:sodipodi="http://sodipodi.sourceforge.net/DTD/sodipodi-0.dtd"
   xmlns:inkscape="http://www.inkscape.org/namespaces/inkscape"
   width="48"
   height="48"
   viewBox="0 0 48 48"
   version="1.1"
   id="svg4"
   sodipodi:docname="podcastaddict.svg"
   inkscape:version="0.92.2 5c3e80d, 2017-08-06"
   inkscape:export-filename="/Users/michael/Michael/Prog/GitHub/frost_fork/frost/other/podcastaddict_preview.png"
   inkscape:export-xdpi="400"
   inkscape:export-ydpi="400">
  <metadata
     id="metadata10">
    <rdf:RDF>
      <cc:Work
         rdf:about="">
        <dc:format>image/svg+xml</dc:format>
        <dc:type
           rdf:resource="http://purl.org/dc/dcmitype/StillImage" />
        <dc:title></dc:title>
      </cc:Work>
    </rdf:RDF>
  </metadata>
  <defs
     id="defs8" />
  <sodipodi:namedview
     pagecolor="#ffffff"
     bordercolor="#666666"
     borderopacity="1"
     objecttolerance="10"
     gridtolerance="10"
     guidetolerance="10"
     inkscape:pageopacity="0"
     inkscape:pageshadow="2"
     inkscape:window-width="2510"
     inkscape:window-height="1395"
     id="namedview6"
     showgrid="false"
     inkscape:pagecheckerboard="true"
     inkscape:zoom="19.625309"
     inkscape:cx="19.852608"
     inkscape:cy="22.772109"
     inkscape:window-x="50"
     inkscape:window-y="1"
     inkscape:window-maximized="1"
     inkscape:current-layer="layer1" />
  <g
     inkscape:groupmode="layer"
     id="layer1"
     inkscape:label="Layer 1"
     style="display:inline;opacity:1">
    <path
       style="fill:#ffffff"
       d="M 23.583984 1.609375 A 22 22 0 0 0 1.5839844 23.609375 A 22 22 0 0 0 13.402344 43.091797 L 13.402344 24.076172 L 13.460938 24.076172 A 10.147123 10.147123 0 0 1 13.861328 20.708984 A 10.147123 10.147123 0 0 1 21.507812 13.685547 L 21.507812 16.921875 A 7.0068026 7.0068026 0 0 0 16.871094 21.605469 A 7.0068026 7.0068026 0 0 0 21.517578 30.302734 A 7.0068026 7.0068026 0 0 0 30.259766 25.744141 A 7.0068026 7.0068026 0 0 0 30.324219 25.515625 L 33.542969 25.515625 A 10.147123 10.147123 0 0 1 33.25 26.701172 A 10.147123 10.147123 0 0 1 20.589844 33.302734 A 10.147123 10.147123 0 0 1 16.574219 30.943359 L 16.574219 44.441406 A 22 22 0 0 0 23.583984 45.609375 A 22 22 0 0 0 37.660156 40.507812 L 37.660156 46 L 45.53125 46 L 45.53125 25.111328 A 22 22 0 0 0 45.583984 23.609375 A 22 22 0 0 0 45.53125 22.550781 L 45.53125 22.203125 L 45.513672 22.203125 A 22 22 0 0 0 23.583984 1.609375 z M 23.693359 7.0273438 A 16.582766 16.582766 0 0 1 40.166016 23.425781 L 36.775391 23.462891 A 13.196145 12.612245 0 0 0 23.667969 11.001953 L 23.693359 7.0273438 z M 23.777344 13.462891 A 10.147123 10.147123 0 0 1 26.388672 13.855469 L 26.775391 13.974609 A 10.147123 10.147123 0 0 1 33.728516 23.785156 L 30.583984 23.785156 A 7.0068026 7.0068026 0 0 0 25.787109 16.957031 L 25.521484 16.873047 A 7.0068026 7.0068026 0 0 0 23.71875 16.601562 A 7.0068026 7.0068026 0 0 0 23.669922 16.603516 L 23.669922 13.466797 A 10.147123 10.147123 0 0 1 23.777344 13.462891 z M 23.583984 19.646484 A 3.9633386 3.9633386 0 0 1 27.546875 23.609375 A 3.9633386 3.9633386 0 0 1 23.583984 27.574219 A 3.9633386 3.9633386 0 0 1 19.621094 23.609375 A 3.9633386 3.9633386 0 0 1 23.583984 19.646484 z "
       id="circle2" />
  </g>
</svg>
