<?xml version="1.0" encoding="UTF-8" standalone="no"?>
<svg
   xmlns:dc="http://purl.org/dc/elements/1.1/"
   xmlns:cc="http://creativecommons.org/ns#"
   xmlns:rdf="http://www.w3.org/1999/02/22-rdf-syntax-ns#"
   xmlns:svg="http://www.w3.org/2000/svg"
   xmlns="http://www.w3.org/2000/svg"
   xmlns:sodipodi="http://sodipodi.sourceforge.net/DTD/sodipodi-0.dtd"
   xmlns:inkscape="http://www.inkscape.org/namespaces/inkscape"
   width="48"
   height="48"
   viewBox="0 0 48 48"
   version="1.1"
   id="svg4"
   sodipodi:docname="voice.svg"
   inkscape:version="0.92.2 5c3e80d, 2017-08-06">
  <metadata
     id="metadata10">
    <rdf:RDF>
      <cc:Work
         rdf:about="">
        <dc:format>image/svg+xml</dc:format>
        <dc:type
           rdf:resource="http://purl.org/dc/dcmitype/StillImage" />
        <dc:title></dc:title>
      </cc:Work>
    </rdf:RDF>
  </metadata>
  <defs
     id="defs8" />
  <sodipodi:namedview
     pagecolor="#ffffff"
     bordercolor="#666666"
     borderopacity="1"
     objecttolerance="10"
     gridtolerance="10"
     guidetolerance="10"
     inkscape:pageopacity="0"
     inkscape:pageshadow="2"
     inkscape:window-width="1596"
     inkscape:window-height="1031"
     id="namedview6"
     showgrid="false"
     inkscape:pagecheckerboard="true"
     inkscape:zoom="14.437224"
     inkscape:cx="28.072738"
     inkscape:cy="22.527506"
     inkscape:window-x="163"
     inkscape:window-y="24"
     inkscape:window-maximized="0"
     inkscape:current-layer="svg4" />
  <path
     d="M 24 2 A 22 22 0 0 0 5.2617188 12.527344 C 5.7759281 12.614048 6.2556309 12.766063 6.7207031 12.953125 C 7.343116 12.66752 7.9883136 12.498047 8.6582031 12.498047 C 10.847276 12.498047 12.635148 13.033793 14.111328 14.625 C 15.587508 16.216207 16.802831 18.726127 18.40625 22.769531 C 20.004631 26.800232 21.074962 29.76214 22.283203 31.5625 C 22.879506 32.45103 23.465443 33.070921 24.193359 33.460938 C 25.322558 33.057122 26.16436 32.359094 26.933594 31.367188 C 28.141299 29.809883 29.091632 27.475735 30.234375 24.601562 C 31.369894 21.74556 32.443207 18.715327 33.738281 16.332031 C 34.385818 15.140383 35.087561 14.10449 35.929688 13.330078 C 36.771814 12.555666 37.796662 12.044922 38.943359 12.044922 C 39.932356 12.044922 40.876017 12.349849 41.769531 12.873047 C 42.054758 12.686758 42.359551 12.541837 42.673828 12.423828 A 22 22 0 0 0 24 2 z M 38.943359 13.644531 C 38.254524 13.644531 37.652093 13.920727 37.013672 14.507812 C 36.375251 15.094901 35.743772 15.992935 35.144531 17.095703 C 33.946051 19.30124 32.870942 22.29838 31.720703 25.191406 C 30.577688 28.066261 29.623598 30.510956 28.199219 32.347656 C 27.714111 32.97319 27.159117 33.513819 26.535156 33.96875 C 26.704406 33.970891 26.8677 33.978026 27.050781 33.970703 C 29.456268 33.874484 30.835264 33.031914 32.042969 31.474609 C 33.250674 29.917305 34.201007 27.583156 35.34375 24.708984 C 36.479269 21.852982 37.552582 18.822749 38.847656 16.439453 C 39.347375 15.519832 39.880484 14.697227 40.484375 14.011719 C 39.961371 13.776087 39.444156 13.644531 38.943359 13.644531 z M 43.458984 13.833984 C 43.36908 13.857197 43.279714 13.887548 43.191406 13.921875 C 43.414065 14.122493 43.633386 14.332385 43.847656 14.558594 A 22 22 0 0 0 43.458984 13.833984 z M 4.4121094 14.037109 A 22 22 0 0 0 3.9785156 15 C 4.2955638 14.681337 4.6160052 14.381399 4.9414062 14.111328 C 4.7659973 14.086647 4.6024512 14.050861 4.4121094 14.037109 z M 8.6582031 14.097656 C 8.6254497 14.097656 8.5897779 14.107963 8.5566406 14.109375 C 8.7048753 14.243443 8.8576836 14.362219 9 14.515625 C 10.47618 16.106832 11.693456 18.618705 13.296875 22.662109 C 14.895256 26.69281 15.965587 29.654718 17.173828 31.455078 C 18.38207 33.255438 19.544717 33.959151 21.941406 33.863281 C 22.005952 33.860699 22.061916 33.851312 22.125 33.847656 C 21.697326 33.447099 21.308694 32.981989 20.955078 32.455078 C 19.548551 30.35926 18.507749 27.363459 16.919922 23.359375 C 15.337133 19.367993 14.128038 16.996198 12.9375 15.712891 C 11.746962 14.429584 10.625054 14.097656 8.6582031 14.097656 z M 6.7929688 14.734375 C 6.5452675 14.889361 6.2927792 15.06787 6.0332031 15.279297 C 5.0703308 16.063564 4.0592106 17.210128 3.0546875 18.541016 C 2.8898634 18.75939 2.726969 19.007023 2.5625 19.234375 A 22 22 0 0 0 2 24 A 22 22 0 0 0 24 46 A 22 22 0 0 0 46 24 A 22 22 0 0 0 45.675781 20.244141 C 45.022175 18.863393 44.297707 17.638026 43.529297 16.638672 C 42.984864 15.930611 42.424972 15.347073 41.863281 14.884766 C 41.313747 15.46338 40.771627 16.250377 40.253906 17.203125 C 39.055426 19.408662 37.980317 22.405802 36.830078 25.298828 C 35.687063 28.173683 34.732973 30.618378 33.308594 32.455078 C 31.884214 34.291778 29.904653 35.458737 27.115234 35.570312 C 26.000471 35.614903 25.024029 35.453515 24.158203 35.121094 C 23.498317 35.309505 22.787247 35.431635 22.005859 35.462891 C 19.207645 35.574819 17.25223 34.441521 15.845703 32.345703 C 14.439176 30.249885 13.39642 27.256038 11.808594 23.251953 C 10.225805 19.260571 9.0186626 16.888776 7.828125 15.605469 C 7.4879974 15.238838 7.1479958 14.957386 6.7929688 14.734375 z "
     id="circle2"
     style="fill:#ffffff"
     inkscape:export-xdpi="400"
     inkscape:export-ydpi="400" />
</svg>
